<?xml version="1.0" standalone="no"?>
<!DOCTYPE svg PUBLIC "-//W3C//DTD SVG 20010904//EN"
 "http://www.w3.org/TR/2001/REC-SVG-20010904/DTD/svg10.dtd">
<svg version="1.0" xmlns="http://www.w3.org/2000/svg"
 width="756.000000pt" height="756.000000pt" viewBox="0 0 756.000000 756.000000"
 preserveAspectRatio="xMidYMid meet">
<metadata>
Created by potrace 1.11, written by Peter Selinger 2001-2013
</metadata>
<g transform="translate(0.000000,756.000000) scale(0.100000,-0.100000)"
fill="#000000" stroke="none">
<path d="M3549 7296 c-2 -2 -40 -7 -84 -10 -134 -10 -182 -17 -310 -40 -76
-14 -96 -18 -155 -31 -14 -3 -36 -7 -49 -10 -13 -2 -49 -12 -80 -21 -31 -9
-60 -17 -66 -18 -33 -6 -236 -78 -335 -118 -134 -54 -370 -173 -480 -243 -85
-53 -215 -139 -220 -145 -3 -3 -36 -28 -75 -55 -38 -27 -74 -54 -80 -60 -5 -6
-41 -36 -80 -67 -206 -166 -421 -392 -579 -608 -42 -58 -85 -116 -96 -130 -11
-14 -20 -29 -20 -33 0 -4 -5 -13 -10 -20 -20 -24 -70 -102 -70 -110 0 -5 -9
-21 -19 -36 -34 -47 -122 -223 -181 -361 -52 -121 -142 -374 -154 -433 -3 -12
-13 -49 -22 -82 -9 -33 -17 -67 -19 -75 -2 -8 -8 -33 -14 -55 -5 -22 -13 -56
-16 -75 -3 -19 -12 -71 -20 -115 -8 -44 -17 -98 -20 -120 -12 -78 -5 -74 -118
-74 -56 0 -119 0 -140 0 l-38 -1 3 -92 3 -91 458 0 c251 0 460 2 463 6 8 8 17
71 18 132 l1 50 -193 0 -193 0 6 70 c4 38 9 72 10 75 2 3 6 26 10 50 3 25 8
52 11 61 3 10 7 30 9 45 19 129 115 435 185 589 11 24 20 47 20 50 0 10 121
248 157 310 69 117 203 311 289 419 118 147 425 456 454 456 5 0 10 4 10 9 0
16 259 202 391 282 129 77 305 167 419 214 63 26 268 101 282 104 4 1 13 3 20
6 25 8 125 36 144 39 11 2 37 9 59 15 22 6 58 13 80 16 22 3 46 8 54 11 8 2
30 7 50 10 20 3 47 7 61 10 137 23 330 37 515 37 129 0 317 -9 366 -18 14 -3
43 -7 64 -9 62 -7 186 -27 225 -36 19 -5 51 -11 70 -14 58 -9 262 -68 360
-104 22 -8 22 -8 55 -17 17 -4 35 -11 40 -15 6 -4 37 -17 70 -30 66 -26 268
-124 343 -166 68 -39 196 -117 202 -124 3 -3 32 -23 65 -45 67 -45 249 -188
309 -244 107 -99 272 -270 326 -337 8 -11 33 -42 56 -69 121 -149 261 -369
365 -575 79 -157 166 -371 170 -417 0 -5 5 -13 9 -18 5 -6 11 -22 14 -35 7
-32 43 -166 56 -205 5 -16 12 -46 15 -65 3 -19 8 -46 10 -60 13 -61 15 -77 21
-115 3 -22 7 -59 9 -81 2 -23 5 -45 6 -50 5 -27 -9 -29 -193 -29 l-193 0 2
-35 c2 -19 5 -57 7 -85 3 -27 5 -53 5 -57 1 -5 205 -8 454 -8 l454 0 1 89 c1
63 -2 90 -11 93 -6 2 -65 4 -129 3 -99 0 -118 2 -119 15 0 8 -2 22 -3 30 -2 8
-7 40 -11 70 -11 82 -13 94 -30 185 -39 195 -131 510 -184 627 -11 24 -34 77
-51 118 -40 93 -110 232 -167 328 -24 41 -43 76 -43 78 0 18 -286 413 -329
454 -9 8 -31 33 -50 55 -52 62 -190 203 -272 277 -347 313 -786 573 -1219 720
-151 51 -408 117 -520 133 -66 9 -107 16 -125 20 -11 2 -45 6 -75 10 -30 3
-71 8 -90 11 -40 6 -575 15 -581 10z"/>
<path d="M3709 6842 c-1 -4 -3 -54 -5 -112 -8 -236 -10 -360 -5 -361 3 -1 29
-3 56 -4 28 -1 75 -4 106 -5 30 -2 60 0 66 3 9 6 10 53 1 63 -2 2 -38 5 -79 7
l-74 4 3 201 c2 188 1 202 -15 203 -10 0 -26 2 -35 4 -10 2 -18 0 -19 -3z"/>
<path d="M3218 6786 c-97 -48 -138 -110 -144 -220 -3 -63 23 -124 76 -175 49
-47 95 -65 171 -64 152 0 270 150 235 298 -15 64 -74 135 -135 162 -55 25
-151 24 -203 -1z m168 -71 c123 -61 126 -233 5 -294 -83 -43 -192 -4 -225 80
-21 51 -20 84 3 135 37 80 140 118 217 79z"/>
<path d="M4272 6798 c-7 -7 -12 -18 -12 -25 0 -7 -4 -13 -8 -13 -4 0 -13 -12
-19 -27 -7 -16 -24 -48 -39 -73 -70 -118 -174 -303 -172 -305 2 -1 17 -5 35
-8 27 -5 36 -2 56 24 l24 30 64 -10 c103 -18 109 -20 109 -39 0 -30 23 -52 57
-56 29 -3 32 -1 28 18 -11 47 -27 122 -31 142 -15 80 -74 348 -77 350 -2 2 -9
-2 -15 -8z m-7 -225 c4 -16 10 -46 15 -68 5 -21 7 -41 5 -43 -2 -3 -29 -1 -60
3 l-56 7 19 31 c11 18 28 47 38 65 22 39 32 40 39 5z"/>
<path d="M2830 6694 c-136 -40 -209 -208 -145 -333 61 -121 202 -169 320 -111
53 27 62 41 46 83 l-10 26 -48 -27 c-57 -31 -134 -36 -174 -9 -104 69 -100
227 6 283 47 24 46 24 85 24 28 0 30 2 24 28 -13 54 -27 59 -104 36z"/>
<path d="M4887 6633 c-4 -8 -43 -101 -109 -258 -16 -38 -39 -91 -50 -118 -23
-51 -20 -61 23 -72 25 -6 28 -2 79 119 29 69 55 124 57 122 5 -5 11 -38 18
-105 3 -33 8 -68 10 -79 2 -10 6 -43 10 -73 7 -59 10 -64 40 -73 17 -5 25 6
57 87 20 50 61 149 92 219 53 124 55 138 21 144 -5 1 -16 3 -23 5 -8 3 -31
-39 -64 -114 -28 -65 -54 -115 -58 -110 -7 7 -16 81 -26 217 -2 26 -10 59 -19
72 -15 23 -49 33 -58 17z"/>
<path d="M2402 6519 c-111 -55 -164 -199 -113 -313 65 -147 276 -190 384 -78
l26 27 -20 32 -21 32 -26 -25 c-80 -77 -189 -70 -251 17 -70 96 -16 233 102
254 41 8 44 15 21 50 -20 31 -46 31 -102 4z"/>
<path d="M5364 6358 c-3 -4 -9 -6 -14 -3 -5 3 -29 -4 -54 -16 -191 -89 -183
-355 13 -442 60 -26 166 -26 193 1 7 7 17 12 24 12 7 0 28 16 47 35 150 150
53 396 -166 418 -21 3 -40 0 -43 -5z m124 -98 c33 -19 57 -47 67 -80 1 -3 5
-13 10 -23 6 -15 4 -44 -9 -104 -3 -17 -48 -66 -72 -80 -127 -70 -281 49 -243
190 28 104 149 152 247 97z"/>
<path d="M2037 6302 c-15 -9 -25 -22 -23 -28 5 -12 243 -363 257 -378 11 -12
59 13 59 31 0 11 -97 161 -128 199 -5 5 -15 21 -22 35 -7 13 -16 26 -20 29 -3
3 -25 33 -49 68 -23 34 -43 62 -44 62 -1 0 -14 -8 -30 -18z"/>
<path d="M3747 6174 c-1 -1 -49 -4 -107 -7 -125 -7 -247 -22 -345 -43 -38 -9
-79 -17 -91 -20 -11 -2 -67 -17 -122 -34 -404 -120 -769 -347 -1075 -668 -107
-112 -264 -324 -328 -442 -13 -25 -26 -47 -29 -50 -3 -3 -17 -30 -32 -60 -119
-242 -191 -470 -233 -740 -25 -162 -26 -513 -1 -660 3 -14 7 -42 10 -63 11
-69 37 -191 57 -262 11 -38 22 -74 23 -80 3 -12 8 -23 48 -130 56 -147 195
-409 250 -471 10 -11 18 -24 18 -28 0 -4 6 -13 13 -20 6 -7 23 -28 37 -47 212
-286 542 -561 860 -716 157 -77 358 -150 486 -178 10 -2 60 -13 109 -23 126
-28 166 -33 345 -49 130 -11 281 -7 420 12 14 2 48 6 75 9 60 7 75 10 190 35
788 167 1458 741 1742 1491 32 82 82 244 89 284 2 17 7 39 10 48 17 55 37 190
50 328 11 127 6 382 -11 480 -2 14 -6 41 -9 60 -5 31 -30 164 -41 215 -2 11
-11 45 -20 75 -9 30 -18 62 -20 70 -2 8 -4 15 -5 15 -1 0 -3 7 -5 15 -3 14
-43 123 -68 185 -7 16 -38 82 -69 145 -178 362 -493 705 -868 946 -239 154
-486 258 -756 319 -60 13 -134 27 -164 31 -30 3 -64 8 -75 10 -32 7 -352 23
-358 18z m238 -138 c70 -6 207 -26 285 -41 66 -12 275 -76 360 -109 113 -44
293 -137 393 -203 40 -27 76 -50 81 -52 5 -2 18 -12 30 -21 12 -10 50 -41 86
-70 98 -77 229 -207 327 -324 13 -14 51 -65 86 -114 318 -441 468 -978 423
-1517 -5 -49 -9 -92 -11 -95 -2 -3 -6 -34 -10 -70 -4 -36 -10 -69 -13 -75 -3
-5 -7 -19 -8 -30 -1 -12 -7 -39 -13 -61 -5 -21 -12 -50 -15 -64 -16 -90 -108
-326 -183 -470 -47 -90 -210 -340 -222 -340 -4 0 -15 -15 -26 -32 -35 -60
-287 -303 -407 -392 -64 -47 -119 -86 -122 -86 -3 0 -24 -13 -48 -29 -94 -63
-405 -208 -487 -226 -9 -2 -47 -13 -86 -25 -82 -24 -87 -25 -230 -50 -60 -11
-141 -23 -180 -26 -87 -7 -346 -7 -400 1 -22 3 -62 7 -90 10 -27 3 -61 7 -75
11 -14 3 -38 7 -55 9 -16 2 -50 9 -75 15 -25 6 -56 13 -70 16 -14 3 -86 25
-160 50 -451 153 -829 432 -1118 826 -84 115 -182 290 -257 462 -39 88 -119
356 -129 431 -2 11 -6 39 -10 63 -19 110 -28 228 -29 372 0 137 8 237 28 355
3 17 8 46 11 65 8 49 52 223 65 257 6 15 12 36 14 45 8 40 82 211 134 313 227
439 589 792 1031 1005 146 71 369 148 505 174 17 4 41 9 55 11 67 14 174 27
255 31 50 3 91 7 92 8 4 4 192 -2 268 -8z"/>
<path d="M3312 5660 c-12 -5 -68 -53 -123 -107 -95 -92 -116 -124 -112 -170 0
-7 1 -23 2 -34 1 -28 203 -234 241 -248 21 -7 40 -4 86 15 107 43 132 35 246
-80 l85 -86 -209 -208 c-115 -114 -213 -215 -219 -224 -13 -24 6 -58 31 -58
13 0 100 80 235 215 118 118 218 215 222 215 5 0 104 -97 221 -215 131 -132
220 -215 232 -215 17 0 40 26 40 46 0 4 -99 105 -220 226 l-221 219 78 81
c103 106 162 130 232 93 16 -8 48 -19 71 -24 l41 -9 108 106 c60 59 113 117
120 129 16 32 14 95 -6 123 -26 39 -205 210 -214 205 -4 -3 -10 -1 -14 5 -8
13 -56 13 -89 0 -37 -14 -234 -215 -238 -242 -2 -13 9 -54 23 -92 38 -99 31
-119 -78 -228 l-89 -89 -92 92 c-51 51 -93 99 -93 108 -1 9 -3 26 -4 38 -1 12
8 48 21 80 31 76 30 95 -8 140 -64 72 -183 185 -206 194 -29 11 -70 11 -100
-1z"/>
<path d="M2221 3800 l0 -690 64 0 c45 0 65 4 66 13 0 6 1 317 2 690 l2 677
-67 0 -67 0 0 -690z"/>
<path d="M2409 4476 c-6 -49 -4 -1344 2 -1356 5 -12 22 -14 72 -12 l66 4 -1
155 c0 85 2 155 4 156 1 1 30 15 63 32 81 40 190 151 233 236 18 36 35 74 37
85 2 10 4 19 5 19 5 0 12 50 17 119 14 189 -79 367 -254 488 -77 52 -241 103
-244 74z m197 -211 c100 -76 158 -186 168 -315 6 -67 -41 -199 -94 -264 -35
-44 -101 -96 -122 -96 -3 0 -6 158 -6 350 1 229 4 350 11 350 6 0 25 -11 43
-25z"/>
<path d="M3163 4196 c-3 -4 -6 -249 -6 -545 l0 -536 29 -5 c16 -3 40 -4 55 -2
l25 4 0 544 c0 373 -3 544 -10 545 -61 4 -89 3 -93 -5z"/>
<path d="M3434 4196 c-3 -7 4 -33 15 -58 l19 -45 59 -1 c93 0 95 -1 86 -14 -4
-7 -9 -21 -10 -31 -2 -9 -30 -126 -64 -260 -33 -133 -63 -250 -65 -259 -2 -10
-6 -26 -8 -35 -2 -10 -25 -99 -50 -198 -24 -99 -43 -181 -40 -184 7 -7 98 -1
105 7 9 8 37 110 53 187 2 11 15 63 29 115 14 52 28 106 31 120 3 14 28 117
56 230 29 113 53 212 55 220 34 150 45 201 45 204 0 3 -30 5 -67 5 -38 0 -92
1 -122 1 -29 1 -55 -1 -58 -4 -2 -2 -18 0 -34 4 -22 6 -31 5 -35 -4z"/>
<path d="M3809 4200 c-5 -4 -11 -15 -13 -26 -2 -10 -14 -57 -26 -104 -12 -47
-23 -92 -25 -100 -2 -8 -13 -53 -25 -100 -12 -47 -24 -94 -26 -105 -2 -11 -40
-162 -83 -335 l-78 -315 31 -5 c35 -6 345 -5 351 1 2 2 -5 27 -14 54 l-17 50
-98 2 c-54 1 -100 4 -103 7 -3 3 0 25 6 48 6 24 13 52 15 63 2 11 12 49 21 85
9 36 18 72 20 80 2 8 24 98 50 200 26 102 49 194 51 205 2 11 19 81 38 155 19
74 33 136 31 138 -5 5 -97 7 -106 2z"/>
<path d="M4138 4200 c-15 -5 -29 -6 -32 -3 -2 3 -10 2 -16 -2 -8 -5 -8 -10 0
-20 6 -7 13 -23 15 -35 8 -39 23 -47 92 -49 37 -1 69 -3 71 -5 2 -3 -1 -20 -7
-38 -5 -18 -12 -46 -15 -61 -3 -15 -12 -51 -20 -80 -8 -29 -17 -63 -20 -77 -3
-14 -7 -34 -10 -45 -3 -11 -24 -94 -46 -185 -23 -91 -44 -174 -46 -185 -2 -11
-15 -65 -30 -120 -46 -181 -46 -178 -33 -186 12 -7 96 -5 103 2 2 2 7 18 9 34
3 17 22 92 41 169 20 76 38 151 41 167 3 15 10 40 15 54 5 14 12 38 15 53 2
15 12 54 21 87 8 33 17 69 20 80 2 11 15 63 29 115 14 52 27 104 29 115 2 11
11 49 21 85 10 36 19 80 22 97 4 31 3 32 -29 32 -18 -1 -37 0 -43 1 -5 1 -14
1 -20 0 -22 -4 -133 -2 -141 2 -5 3 -21 2 -36 -2z"/>
<path d="M3019 4197 c-1 -1 -2 -245 -3 -542 -2 -529 -1 -540 18 -545 11 -3 35
-4 53 -2 33 4 33 4 34 61 2 121 0 793 -2 907 l-3 121 -48 2 c-26 0 -49 0 -49
-2z"/>
<path d="M4450 4166 c-6 -19 -13 -45 -16 -58 -2 -13 -11 -50 -19 -83 -9 -33
-18 -70 -20 -83 -3 -12 -19 -74 -35 -137 -16 -63 -31 -125 -34 -137 -2 -13
-12 -50 -21 -83 -9 -33 -18 -71 -21 -85 -3 -14 -10 -43 -16 -65 -5 -22 -12
-47 -13 -55 -2 -8 -13 -53 -25 -100 -38 -151 -41 -163 -37 -167 2 -2 90 -2
194 -1 l190 3 -19 51 -20 51 -99 0 c-55 0 -101 2 -104 4 -2 3 5 43 16 89 27
109 26 108 39 155 6 22 13 49 15 61 3 11 39 158 81 325 42 167 78 313 80 325
3 19 -1 21 -50 23 -54 1 -54 1 -66 -33z"/>
<path d="M4936 4183 c-3 -10 -10 -45 -16 -78 -5 -33 -12 -71 -15 -85 -3 -14
-8 -43 -10 -64 -3 -21 -7 -42 -9 -45 -3 -4 -7 -27 -11 -51 -6 -47 -15 -98 -19
-115 -2 -5 -7 -32 -11 -60 -5 -27 -9 -52 -10 -55 -1 -3 -9 -49 -19 -102 l-18
-98 -54 0 c-30 0 -54 -2 -54 -5 0 -17 55 -88 71 -92 12 -4 18 -11 15 -22 -3
-9 -10 -47 -16 -86 -5 -38 -12 -80 -15 -92 -5 -22 -2 -23 54 -23 l59 0 7 38
c10 55 17 86 19 97 2 6 6 27 11 48 4 24 13 37 24 38 20 2 132 1 148 0 10 -1
16 -18 27 -76 2 -11 7 -40 12 -65 5 -25 9 -52 9 -60 0 -11 16 -16 58 -20 70
-6 68 -15 32 175 -3 17 -15 82 -26 145 -11 63 -22 126 -25 140 -3 14 -6 34 -8
45 -2 11 -14 76 -26 145 -12 69 -24 134 -26 145 -2 11 -5 31 -8 45 -3 14 -12
68 -21 120 -23 137 -19 130 -75 130 -38 0 -50 -4 -54 -17z m79 -473 c23 -141
25 -154 30 -170 2 -8 6 -36 9 -61 l6 -45 -67 0 c-38 1 -68 6 -68 11 1 13 16
135 21 160 2 11 5 40 8 65 3 25 8 65 12 90 4 25 8 54 9 65 1 11 3 25 5 30 3
18 20 -48 35 -145z"/>
<path d="M5080 4190 c0 -4 4 -29 9 -56 5 -27 12 -67 15 -89 4 -23 9 -52 11
-65 3 -14 8 -41 11 -60 2 -19 10 -59 15 -89 6 -30 12 -64 14 -75 1 -12 5 -34
8 -51 4 -16 9 -46 12 -65 8 -58 15 -102 25 -150 14 -65 30 -159 36 -200 4 -33
21 -128 29 -160 2 -8 4 -18 4 -21 1 -3 25 -5 54 -4 l52 1 -1 39 c-1 22 -5 54
-8 70 -3 17 -9 46 -12 65 -5 35 -33 187 -40 225 -5 23 -4 18 -40 225 -14 85
-28 164 -30 175 -2 11 -9 47 -14 80 -5 33 -12 70 -14 81 -2 12 -7 39 -11 60
-4 22 -8 46 -9 54 -2 11 -18 15 -59 16 -32 1 -57 -1 -57 -6z"/>
<path d="M2851 2585 c-25 -52 -53 -70 -118 -74 -20 -1 -15 -13 22 -55 33 -38
34 -42 28 -98 -3 -32 -3 -58 0 -58 4 0 21 9 39 20 38 23 63 25 98 7 61 -32 61
-32 55 36 -6 61 -5 63 29 99 34 35 35 51 1 53 -51 3 -77 19 -97 61 -11 24 -24
46 -28 49 -4 3 -17 -15 -29 -40z"/>
<path d="M3695 2575 c-15 -30 -32 -55 -39 -56 -38 -2 -70 -9 -78 -17 -5 -5 6
-24 26 -46 32 -35 34 -41 30 -97 -2 -32 -1 -59 1 -59 2 0 25 10 50 22 l45 22
45 -22 c25 -12 48 -22 51 -22 3 0 2 25 0 57 -6 53 -4 58 30 100 20 24 34 46
32 49 -3 2 -24 7 -48 9 -52 5 -63 14 -89 71 -12 24 -23 44 -24 44 -2 0 -16
-25 -32 -55z"/>
<path d="M4582 2575 c-19 -40 -27 -46 -78 -61 l-56 -16 34 -35 c31 -32 33 -39
32 -99 0 -35 2 -64 5 -64 3 0 24 11 47 24 l40 23 50 -23 c27 -13 52 -23 55
-24 3 0 2 21 -2 48 -4 26 -8 52 -8 57 0 6 15 28 34 50 19 22 35 43 35 46 0 4
-18 9 -40 12 -49 6 -65 19 -91 69 -11 21 -23 38 -27 38 -5 0 -18 -20 -30 -45z"/>
<path d="M1809 6119 c-50 -26 -106 -77 -94 -86 6 -4 43 -48 84 -98 41 -49 84
-99 95 -111 12 -12 33 -37 48 -56 15 -19 39 -47 53 -62 l25 -27 26 26 26 26
-24 27 c-61 69 -60 65 -34 93 71 77 40 213 -62 268 -36 19 -106 20 -143 0z
m126 -73 c21 -14 55 -64 55 -81 0 -11 -33 -70 -43 -76 -5 -4 -37 27 -70 69
-60 75 -60 75 -39 92 24 20 63 18 97 -4z"/>
<path d="M5703 5882 l-172 -177 27 -22 27 -21 88 89 c82 83 116 103 102 59 -3
-10 -7 -31 -10 -46 -10 -80 -18 -131 -21 -149 -2 -11 -7 -42 -10 -70 l-6 -50
176 175 176 174 -26 27 -25 27 -95 -93 c-51 -51 -96 -89 -100 -84 -3 5 -3 12
-1 17 3 4 8 30 11 57 11 83 17 119 21 135 6 23 17 130 13 129 -1 0 -80 -80
-175 -177z"/>
<path d="M6154 5712 c-10 -9 -94 -73 -186 -140 -93 -68 -168 -127 -168 -130 1
-4 10 -18 20 -31 l20 -23 53 37 c28 20 76 54 105 76 28 22 52 36 52 32 0 -7
-28 -114 -45 -173 -31 -108 -42 -160 -32 -152 7 4 48 35 92 67 44 32 99 72
122 89 41 31 49 36 131 96 l42 30 -22 30 -21 29 -51 -36 c-28 -20 -64 -46 -81
-57 -16 -12 -36 -27 -43 -34 -7 -6 -23 -17 -34 -23 -18 -10 -20 -9 -13 7 4 11
13 39 20 64 8 25 27 91 44 148 17 56 31 104 31 107 0 10 -17 4 -36 -13z"/>
<path d="M1290 5565 c0 -8 7 -20 15 -29 8 -8 15 -17 15 -20 0 -9 134 -211 143
-214 4 -2 7 -7 7 -12 0 -4 21 -40 46 -79 44 -67 74 -90 74 -56 0 8 5 15 10 15
15 0 12 33 -6 59 -16 22 -15 25 22 79 58 85 68 92 102 82 26 -7 33 -4 51 18
24 30 26 42 9 43 -7 0 -20 2 -28 4 -141 37 -394 105 -422 113 -30 8 -38 8 -38
-3z m215 -121 c30 -5 95 -26 95 -30 0 -3 -12 -22 -27 -42 -15 -20 -29 -39 -30
-41 -2 -3 -14 6 -28 19 -14 13 -23 26 -20 28 3 3 -1 12 -8 21 -28 32 -30 70
-3 54 6 -4 16 -8 21 -9z"/>
<path d="M6447 5184 c-1 -1 -33 -5 -72 -8 -76 -7 -145 -15 -185 -21 -14 -2
-56 -7 -95 -10 -38 -4 -72 -8 -73 -10 -2 -2 3 -18 12 -37 14 -29 21 -33 53
-33 37 0 39 -2 77 -74 l38 -73 -21 -29 c-19 -26 -20 -32 -9 -57 7 -15 18 -27
23 -27 10 0 60 54 255 275 30 34 66 73 78 87 l24 24 -51 -2 c-28 -2 -52 -4
-54 -5z m-96 -99 c-6 -16 -85 -105 -93 -105 -13 0 -50 81 -44 97 3 8 9 12 14
9 4 -2 23 -1 42 3 49 10 86 8 81 -4z"/>
<path d="M1017 5115 c-16 -34 -16 -34 11 -48 15 -7 111 -57 213 -110 l185 -96
52 99 52 100 -30 15 c-16 8 -31 15 -34 15 -3 0 -18 -24 -32 -52 -34 -69 -44
-80 -58 -69 -6 4 -86 47 -177 94 l-166 86 -16 -34z"/>
<path d="M346 3901 c-2 -9 -3 -37 -2 -63 1 -27 -1 -48 -5 -48 -4 0 -25 21 -46
47 -58 73 -60 75 -65 55 -6 -26 -2 -221 5 -228 3 -4 13 -4 20 -1 11 4 14 22
13 66 -1 43 3 61 12 61 6 0 12 -4 12 -9 0 -5 20 -35 45 -67 l45 -57 1 36 c4
219 5 216 -13 220 -10 3 -19 -2 -22 -12z"/>
<path d="M560 3913 c-11 -3 -15 -18 -14 -63 1 -33 -1 -60 -5 -60 -4 0 -27 27
-52 60 -24 32 -47 59 -51 60 -5 0 -8 -57 -8 -126 0 -114 2 -125 18 -122 14 3
17 15 19 67 2 35 4 65 6 67 3 3 66 -81 87 -116 5 -8 12 -11 17 -7 8 9 12 237
3 241 -3 1 -12 1 -20 -1z"/>
<path d="M710 3907 c-88 -34 -102 -163 -24 -221 57 -41 143 -25 187 35 38 53
14 148 -45 180 -27 15 -87 18 -118 6z m117 -62 c25 -29 29 -61 12 -98 -23 -52
-107 -58 -145 -12 -18 23 -21 40 -15 88 1 4 13 19 27 32 34 32 89 27 121 -10z"/>
<path d="M6846 3904 c-32 -23 -11 -53 23 -34 15 7 23 6 35 -6 9 -8 16 -18 16
-20 0 -19 -33 -75 -61 -105 -19 -19 -34 -44 -34 -55 0 -17 8 -19 68 -21 59 -2
67 0 67 16 0 13 -8 18 -27 19 -56 0 -56 1 -31 35 57 74 70 146 32 174 -21 15
-66 14 -88 -3z"/>
<path d="M7057 3909 c-26 -15 -47 -70 -47 -124 0 -79 43 -134 95 -121 27 7 65
81 65 126 0 44 -37 117 -63 124 -28 7 -29 7 -50 -5z m53 -44 c31 -38 16 -165
-20 -165 -35 0 -52 80 -31 143 13 39 30 47 51 22z"/>
<path d="M7202 3913 c-10 -4 -10 -10 3 -29 11 -18 17 -53 18 -122 2 -79 5 -97
17 -97 13 0 15 20 15 124 0 117 -1 124 -20 126 -11 2 -26 1 -33 -2z"/>
<path d="M7360 3908 c-44 -16 -64 -70 -41 -110 16 -29 65 -53 85 -41 6 4 3 -5
-6 -20 -10 -15 -25 -38 -34 -52 -16 -24 -15 -25 5 -25 28 0 88 93 97 149 11
69 -45 121 -106 99z m47 -34 c40 -11 39 -58 -1 -74 -43 -16 -77 35 -44 68 14
14 15 14 45 6z"/>
<path d="M87 3903 c-3 -5 -13 -37 -22 -73 -9 -36 -23 -85 -31 -109 -10 -29
-12 -47 -5 -54 12 -12 44 10 35 24 -12 20 58 8 75 -13 34 -41 40 -12 15 79
-13 49 -28 101 -32 117 -7 29 -26 44 -35 29z m27 -155 c-8 -13 -35 4 -30 19 3
8 6 22 7 31 0 10 6 5 14 -13 7 -16 11 -33 9 -37z"/>
<path d="M4 3575 c-2 -5 -3 -46 -1 -90 l2 -80 57 -1 c31 -1 63 -4 71 -7 8 -3
18 -3 21 0 3 4 27 5 54 4 26 -1 54 -2 63 -2 9 0 16 -6 16 -12 1 -17 22 -165
29 -202 2 -11 7 -33 10 -50 3 -16 12 -61 20 -100 8 -38 17 -79 19 -90 3 -11
18 -67 35 -125 17 -58 32 -112 34 -120 8 -30 65 -187 96 -265 60 -152 231
-485 251 -493 5 -2 9 -8 9 -14 0 -9 137 -216 150 -228 3 -3 17 -21 30 -40 27
-39 31 -44 121 -150 107 -126 281 -304 374 -382 22 -18 49 -42 60 -53 69 -66
382 -289 486 -346 24 -13 46 -26 49 -29 3 -3 34 -21 70 -39 36 -19 88 -46 115
-61 28 -15 53 -28 58 -29 4 0 37 -15 75 -32 37 -17 72 -32 77 -33 6 -1 26 -10
46 -18 117 -51 399 -134 554 -164 50 -10 54 -11 58 -14 1 -1 16 -3 32 -4 17
-2 44 -6 60 -9 36 -8 107 -18 155 -22 19 -2 73 -7 120 -12 101 -10 546 -10
645 0 39 4 88 9 110 11 22 2 54 7 70 9 17 3 50 9 75 13 25 4 52 8 60 9 8 1 31
5 50 10 19 4 44 9 55 10 11 2 40 8 65 15 25 7 53 14 62 16 10 2 26 6 36 8 9 2
35 9 57 15 22 6 42 10 45 10 3 0 23 7 44 16 22 9 47 18 57 20 9 2 46 15 81 29
36 14 68 26 71 26 4 0 29 10 55 21 26 12 63 28 82 36 148 62 506 264 595 335
6 4 53 40 105 79 198 149 405 341 555 514 38 44 74 85 80 91 5 6 19 23 30 38
11 15 40 53 64 84 198 257 382 610 499 957 30 89 71 223 77 254 2 9 8 36 14
61 7 25 14 56 17 70 35 174 33 161 55 302 7 47 17 79 25 82 8 3 14 2 14 -2 0
-4 18 -7 40 -7 22 0 40 4 40 8 0 5 5 5 10 2 9 -6 69 -9 121 -6 13 1 17 15 18
84 1 45 -3 88 -7 95 -7 11 -95 13 -450 10 -242 -2 -443 -5 -445 -8 -3 -3 -8
-36 -12 -75 -10 -103 -10 -109 9 -102 8 3 17 1 20 -6 3 -7 5 -8 5 -1 1 7 16 9
46 4 25 -4 45 -3 45 2 0 5 5 6 11 3 13 -9 157 -11 165 -3 3 4 19 2 35 -2 16
-5 33 -9 37 -10 4 0 6 -8 6 -18 -3 -32 -15 -127 -19 -142 -2 -8 -7 -33 -10
-55 -7 -50 -13 -81 -19 -103 -3 -9 -7 -28 -10 -42 -16 -94 -82 -304 -144 -460
-85 -215 -250 -518 -375 -688 -185 -252 -433 -508 -672 -694 -109 -85 -410
-281 -435 -283 -3 0 -12 -5 -20 -10 -39 -24 -102 -55 -115 -55 -7 0 -15 -4
-17 -8 -5 -13 -256 -115 -383 -156 -171 -55 -362 -100 -510 -121 -43 -6 -125
-17 -160 -21 -183 -20 -513 -20 -704 2 -77 9 -80 9 -87 16 -3 4 -11 5 -18 2
-14 -5 -242 37 -356 66 -412 105 -830 310 -1175 577 -287 222 -576 543 -772
858 -196 316 -357 710 -418 1030 -5 22 -9 45 -10 50 -6 24 -25 165 -30 212
l-5 53 162 -1 c90 0 177 0 194 0 l31 1 -4 63 c-2 34 -5 71 -8 82 -2 11 -4 25
-4 30 -1 14 -922 14 -927 0z"/>
<path d="M5499 1843 c-1 -4 -1 -10 -1 -13 0 -3 3 -54 7 -115 3 -60 8 -123 10
-140 4 -36 -2 -48 -18 -38 -7 4 -16 8 -22 9 -5 1 -68 23 -139 48 l-128 46 28
-37 c75 -101 218 -289 223 -293 3 -3 11 -14 17 -24 19 -36 39 -41 64 -18 l23
21 -27 39 c-14 21 -34 47 -44 58 -30 35 -64 85 -59 90 2 3 38 -9 80 -25 88
-34 86 -36 80 79 l-3 75 35 -40 c19 -22 52 -64 72 -92 21 -29 41 -53 45 -53 5
0 19 10 32 21 l25 22 -126 166 c-153 201 -173 225 -174 214z"/>
<path d="M1974 1801 c-16 -10 -37 -33 -46 -51 -17 -34 -10 -80 24 -160 25 -60
11 -94 -47 -111 -29 -8 -70 24 -89 71 -18 46 -28 49 -50 15 -21 -33 -20 -53 6
-91 59 -86 197 -91 248 -9 27 44 28 90 1 148 -32 70 -34 104 -8 121 41 26 83
10 115 -42 l20 -33 20 26 c23 29 20 47 -12 84 -45 51 -127 65 -182 32z"/>
<path d="M2278 1623 l-16 -27 49 -34 c57 -38 60 -22 -31 -167 -33 -53 -60 -98
-60 -100 0 -2 -14 -27 -32 -55 l-32 -52 24 -19 c14 -10 29 -17 34 -16 8 3 95
139 157 247 52 92 55 93 100 65 53 -34 57 -34 79 0 l19 31 -127 77 c-70 42
-132 77 -137 77 -6 0 -18 -12 -27 -27z"/>
<path d="M4947 1470 c-18 -14 -25 -26 -19 -34 5 -6 34 -58 64 -116 90 -169
123 -228 144 -256 l19 -27 50 27 c99 54 139 76 143 81 5 5 -18 65 -25 65 -3 0
-36 -16 -74 -36 -38 -20 -72 -35 -74 -32 -3 2 -42 72 -87 155 -46 82 -90 160
-98 172 l-15 23 -28 -22z"/>
<path d="M2650 1387 c-49 -16 -123 -93 -142 -147 -8 -25 -13 -67 -11 -93 10
-176 203 -285 361 -203 137 71 169 257 64 374 -61 68 -178 98 -272 69z m160
-77 c12 0 69 -57 80 -79 38 -75 6 -176 -70 -220 -29 -16 -117 -24 -125 -11 -4
6 -14 10 -25 10 -25 0 -77 62 -89 108 -31 115 73 226 189 200 19 -4 37 -8 40
-8z"/>
<path d="M4610 1323 c-212 -54 -251 -329 -63 -440 62 -36 158 -41 221 -11 151
73 196 261 90 380 -64 70 -151 96 -248 71z m162 -97 c37 -28 68 -88 68 -131 0
-38 -29 -100 -59 -127 -101 -91 -272 -15 -274 121 0 47 23 105 52 129 61 50
154 54 213 8z"/>
<path d="M4224 1228 c-2 -4 -2 -21 1 -37 11 -66 20 -200 12 -207 -7 -7 -157
-14 -158 -7 -2 14 -6 55 -13 123 -7 69 -13 111 -18 115 -2 2 -18 0 -36 -2
l-33 -5 6 -52 c3 -28 8 -64 10 -81 2 -16 6 -59 10 -95 6 -66 10 -99 21 -180 3
-25 6 -51 7 -57 0 -14 19 -16 52 -7 15 4 20 13 19 32 -1 15 -3 27 -4 27 -5 0
-8 95 -2 96 22 4 53 8 106 13 47 5 57 3 53 -8 -3 -8 -3 -17 0 -20 3 -3 8 -27
10 -53 5 -69 7 -72 45 -64 25 6 33 12 31 27 -13 140 -18 185 -27 249 -3 17 -8
66 -11 110 -4 44 -9 83 -12 88 -5 9 -63 5 -69 -5z"/>
<path d="M3269 1221 c-105 -33 -181 -142 -174 -248 3 -51 38 -125 74 -160 36
-34 104 -64 156 -68 54 -3 63 2 70 47 l6 37 -33 -6 c-105 -17 -200 72 -192
180 8 114 137 181 243 127 l39 -19 6 31 c9 45 9 46 -25 64 -36 18 -131 27
-170 15z"/>
<path d="M3572 1185 c-5 -8 -8 -389 -3 -451 1 -15 35 -24 52 -14 7 5 13 29 14
55 2 41 19 91 36 105 3 3 10 13 16 24 9 15 15 4 42 -70 44 -127 39 -121 104
-115 10 1 4 31 -25 114 -58 165 -61 182 -42 201 8 8 14 17 14 20 0 3 18 35 40
71 l40 65 -25 1 c-14 1 -31 2 -37 3 -17 2 -33 -14 -59 -60 -40 -70 -45 -79
-68 -117 -13 -21 -26 -36 -28 -33 -3 3 -5 51 -5 108 l-1 103 -29 0 c-16 1 -32
-4 -36 -10z"/>
</g>
</svg>
